<svg width="112" height="114" viewBox="0 0 112 114" fill="none" xmlns="http://www.w3.org/2000/svg">
<path d="M56.0988 114.074C79.0557 114.074 99.396 102.901 112 85.7019C109.658 82.3461 100.446 72.5401 69.4401 65.0792C69.4401 58.0395 68.7391 53.8228 68.7391 53.8228C68.7391 53.8228 77.8855 41.1545 78.5877 23.5637C78.5877 20.7668 79.9616 0.927537 56.074 0.0295261C56.074 0.0207564 56.074 0.00643107 56.074 0C56.0149 0 55.9623 0.0131562 55.898 0.0131562C55.8366 0.0131562 55.7854 0 55.7241 0C55.7241 0.00643107 55.7241 0.0219257 55.7241 0.0295261C31.8408 0.926368 33.2103 20.7671 33.2103 23.5629C33.9113 41.1533 43.0589 53.8219 43.0589 53.8219C43.0589 53.8219 42.3524 58.0387 42.3524 65.0783C12.1664 72.3419 2.64142 81.8275 0 85.4187C12.5874 102.776 33.0186 114.074 56.0988 114.074Z" fill="white" fill-opacity="0.16"/>
</svg>
