<svg width="124" height="32" viewBox="0 0 124 32" fill="none" xmlns="http://www.w3.org/2000/svg">
<g id="Logo" clip-path="url(#clip0_1277_9273)">
<g id="Subtract">
<path d="M26.532 20.0743C25.3408 20.0743 24.6964 19.0589 24.6964 17.1843C24.6964 15.2901 25.3408 14.2746 26.532 14.2746C27.7232 14.2746 28.3481 15.2901 28.3481 17.1843C28.3481 19.0784 27.7232 20.0743 26.532 20.0743Z" fill="#00C899"/>
<path d="M49.7721 20.0743C48.6395 20.0743 48.0341 19.0589 48.0341 17.1843C48.0341 15.2901 48.6395 14.2746 49.7721 14.2746C50.9242 14.2746 51.5296 15.2901 51.5296 17.1843C51.5296 19.0589 50.9242 20.0743 49.7721 20.0743Z" fill="#00C899"/>
<path fill-rule="evenodd" clip-rule="evenodd" d="M124 0H0V31.2441H124V0ZM13.5912 11.5798C12.6929 11.5798 12.0876 11.9899 12.0876 12.6343C12.0876 13.6767 13.3683 13.9247 14.886 14.2186C17.0929 14.646 19.8009 15.1704 19.8009 18.3754C19.8009 21.1679 17.4576 22.8082 14.2746 22.8082C11.0526 22.8082 8.68976 21.3046 8.26016 18.1802H12.0094C12.2047 19.3909 13.0639 20.0548 14.3137 20.0548C15.5244 20.0548 16.1493 19.5861 16.1493 18.8246C16.1493 17.7278 14.8143 17.4355 13.2551 17.094C11.0664 16.6147 8.43591 16.0387 8.43591 13.0054C8.43591 10.662 10.3496 8.82646 13.7474 8.82646C16.5594 8.82646 19.0394 10.1739 19.4299 13.3178H15.622C15.4072 12.1461 14.7433 11.5798 13.5912 11.5798ZM31.824 17.1843C31.824 20.7578 29.715 22.8082 26.532 22.8082C23.2709 22.8082 21.2205 20.6602 21.2205 17.1843C21.2205 13.5912 23.3295 11.5408 26.532 11.5408C29.7736 11.5408 31.824 13.7083 31.824 17.1843ZM37.0538 22.4567H33.6756V8.39685H37.0538V22.4567ZM42.71 10.9745H39.3317V8.39685H42.71V10.9745ZM42.71 22.4567H39.3317V11.8923H42.71V22.4567ZM51.5296 21.4217C50.9047 22.32 50.0259 22.8082 48.9715 22.8082C46.2767 22.8082 44.5582 20.6602 44.5582 17.1843C44.5582 13.5912 46.3157 11.5408 48.9715 11.5408C50.0455 11.5408 50.9047 11.9899 51.5296 12.8687V8.39685H54.9078V22.4567H51.5296V21.4217ZM61.6094 22.4567H65.183V17.6139H70.5335V14.8214H65.183V11.9899H71.3146V9.17795H61.6094V22.4567ZM72.9942 22.4567H76.5677L76.3529 13.2202L77.3293 16.5594L79.4187 22.4567H81.9964L84.0663 16.618L85.0817 13.1811L84.8669 22.4567H88.4405V9.17795H83.9101L81.391 16.4227L80.7857 18.6683L80.1608 16.4227L77.6417 9.17795H72.9942V22.4567ZM113.5 22.5C113.5 14.2158 106.784 7.5 98.5 7.5V10C105.403 10 111 15.5967 111 22.5H113.5ZM107.667 22.5C107.667 17.4375 103.562 13.3333 98.5 13.3333V15.8333C100.268 15.8333 101.964 16.5357 103.214 17.786C104.464 19.0362 105.167 20.7319 105.167 22.5H107.667ZM100.857 20.143C100.232 19.5179 99.3841 19.1667 98.5 19.1667V22.5H101.833C101.833 21.6159 101.482 20.7681 100.857 20.143Z" fill="#00C899"/>
</g>
</g>
<defs>
<clipPath id="clip0_1277_9273">
<rect width="124" height="31.2441" fill="white"/>
</clipPath>
</defs>
</svg>
