<svg width="124" height="32" viewBox="0 0 124 32" fill="none" xmlns="http://www.w3.org/2000/svg">
<g id="Logo" clip-path="url(#clip0_1132_861)">
<g id="Subtract">
<path d="M26.532 20.0743C25.3408 20.0743 24.6964 19.0589 24.6964 17.1843C24.6964 15.2901 25.3408 14.2746 26.532 14.2746C27.7232 14.2746 28.3481 15.2901 28.3481 17.1843C28.3481 19.0784 27.7232 20.0743 26.532 20.0743Z" fill="white"/>
<path d="M49.7721 20.0743C48.6395 20.0743 48.0341 19.0589 48.0341 17.1843C48.0341 15.2901 48.6395 14.2746 49.7721 14.2746C50.9242 14.2746 51.5296 15.2901 51.5296 17.1843C51.5296 19.0589 50.9242 20.0743 49.7721 20.0743Z" fill="white"/>
<path fill-rule="evenodd" clip-rule="evenodd" d="M0 0H124V31.2441H0V0ZM12.0876 12.6343C12.0876 11.9899 12.6929 11.5798 13.5912 11.5798C14.7433 11.5798 15.4072 12.1461 15.622 13.3178H19.4299C19.0394 10.1739 16.5594 8.82646 13.7474 8.82646C10.3496 8.82646 8.43591 10.662 8.43591 13.0054C8.43591 16.0387 11.0664 16.6147 13.2551 17.094C14.8143 17.4355 16.1493 17.7278 16.1493 18.8246C16.1493 19.5861 15.5244 20.0548 14.3137 20.0548C13.0639 20.0548 12.2047 19.3909 12.0094 18.1802H8.26016C8.68976 21.3046 11.0526 22.8082 14.2746 22.8082C17.4576 22.8082 19.8009 21.1679 19.8009 18.3754C19.8009 15.1704 17.0929 14.646 14.886 14.2186C13.3683 13.9247 12.0876 13.6767 12.0876 12.6343ZM26.532 22.8082C29.715 22.8082 31.824 20.7578 31.824 17.1843C31.824 13.7083 29.7736 11.5408 26.532 11.5408C23.3295 11.5408 21.2205 13.5912 21.2205 17.1843C21.2205 20.6602 23.2709 22.8082 26.532 22.8082ZM33.6756 22.4567H37.0538V8.39685H33.6756V22.4567ZM39.3317 10.9745H42.71V8.39685H39.3317V10.9745ZM39.3317 22.4567H42.71V11.8923H39.3317V22.4567ZM48.9715 22.8082C50.0259 22.8082 50.9047 22.32 51.5296 21.4217V22.4567H54.9078V8.39685H51.5296V12.8687C50.9047 11.9899 50.0455 11.5408 48.9715 11.5408C46.3157 11.5408 44.5582 13.5912 44.5582 17.1843C44.5582 20.6602 46.2767 22.8082 48.9715 22.8082ZM65.183 22.4567H61.6094V9.17795H71.3146V11.9899H65.183V14.8214H70.5335V17.6139H65.183V22.4567ZM76.5677 22.4567H72.9942V9.17795H77.6417L80.1608 16.4227L80.7857 18.6683L81.391 16.4227L83.9101 9.17795H88.4405V22.4567H84.8669L85.0817 13.1811L84.0663 16.618L81.9964 22.4567H79.4187L77.3293 16.5594L76.3529 13.2202L76.5677 22.4567Z" fill="white"/>
</g>
</g>
<defs>
<clipPath id="clip0_1132_861">
<rect width="124" height="31.2441" fill="white"/>
</clipPath>
</defs>
</svg>
